<svg xmlns="http://www.w3.org/2000/svg" viewBox="0 0 58.9 22.4" enable-background="new 0 0 58.9 22.4"><style type="text/css">.st0{fill:#FECF09;}</style><path class="st0" d="M10.9 13.9c-.1-.4-.3-1.6-.3-2.4 0-4.1 3-7.7 10.7-7.7h4s-.9.4-2.9 1.8c-1.9 1.5-11.5 8.3-11.5 8.3m31.9-3l14.6-10.9h-7.3l-11 8.3-2.9-1.9h-6.9l6.3 4.5-4.9 4c-2.5 2.1-5.9 5-11.1 5-2.1 0-4.9-.4-6.5-2.2l23.8-17.7h-14.4c-8.8 0-13.2 5-13.2 11.1 0 1.3.3 2.9.6 3.6l-9.9 7.2h7.5l4.5-3.4c1.6 2 5.2 3.9 8.9 3.9 6.2.1 11.7-4 13.7-5.5l4.5-3.5 11.7 8.5h8.1l-16.1-11z"/></svg>