<?xml version="1.0" standalone="no"?>
<!DOCTYPE svg PUBLIC "-//W3C//DTD SVG 20010904//EN"
 "http://www.w3.org/TR/2001/REC-SVG-20010904/DTD/svg10.dtd">
<svg version="1.0" xmlns="http://www.w3.org/2000/svg"
 width="225.000000pt" height="225.000000pt" viewBox="0 0 225.000000 225.000000"
 preserveAspectRatio="xMidYMid meet">
<metadata>
Created by potrace 1.14, written by Peter Selinger 2001-2017
</metadata>
<g transform="translate(0.000000,225.000000) scale(0.100000,-0.100000)"
fill="#000000" stroke="none">
<path d="M822 2120 c-49 -20 -76 -71 -66 -125 7 -40 41 -61 120 -74 100 -16
134 -37 174 -108 31 -56 44 -45 37 31 -9 85 -22 127 -60 182 -46 70 -149 116
-205 94z"/>
<path d="M1223 1895 c-63 -27 -128 -163 -108 -226 6 -19 9 -18 31 19 25 41 74
72 117 72 72 0 115 44 96 98 -17 49 -74 64 -136 37z"/>
<path d="M1002 1588 c-264 -30 -525 -249 -617 -517 -13 -40 -28 -97 -31 -125
-4 -28 -8 -58 -10 -66 -1 -8 -3 -27 -3 -42 -1 -17 -22 -52 -61 -98 -97 -116
-146 -213 -129 -257 7 -20 16 -23 56 -23 26 0 86 9 132 20 46 11 85 19 87 18
1 -2 23 -31 49 -66 138 -189 351 -288 635 -297 280 -9 537 109 675 310 21 30
41 55 44 55 3 0 22 -5 41 -10 19 -6 67 -17 107 -25 79 -16 117 -9 126 25 10
41 -58 165 -143 260 -39 44 -48 64 -55 120 -26 235 -125 423 -295 559 -75 60
-199 124 -285 146 -68 17 -230 24 -323 13z"/>
</g>
</svg>
